<svg width="30" height="30" viewBox="0 0 30 30" fill="none" xmlns="http://www.w3.org/2000/svg">
<g clip-path="url(#clip0)">
<path d="M28.6363 19.0909H1.36365C0.613652 19.0909 0 18.4773 0 17.7273V2.72727C0 1.97727 0.613652 1.36362 1.36365 1.36362H28.6364C29.3864 1.36362 30.0001 1.97727 30.0001 2.72727V17.7273C30 18.4773 29.3863 19.0909 28.6363 19.0909Z" fill="#0E9347"/>
<path d="M25.2273 13.6363C23.659 13.6363 22.2273 14.3863 21.409 15.6135C20.7273 15.2727 19.9773 14.9999 19.0909 14.9999C16.7046 14.9999 14.7273 16.7727 14.3864 19.0908H28.6364C29.3181 19.0908 29.8636 18.6136 30 17.9317C29.7273 15.5454 27.6818 13.6363 25.2273 13.6363Z" fill="#0D8944"/>
<path d="M25.9091 17.7274H4.09089C4.09089 16.2274 2.86365 15.0001 1.36365 15.0001V5.45468C2.86365 5.45468 4.09089 4.22743 4.09089 2.72743H25.9091C25.9091 4.22743 27.1363 5.45468 28.6363 5.45468V15.0001C27.1363 15.0001 25.9091 16.2274 25.9091 17.7274Z" fill="#3BB54A"/>
<path d="M25.2273 13.6363C23.6591 13.6363 22.2273 14.3863 21.4091 15.6135C20.7273 15.2727 19.9773 14.9999 19.0909 14.9999C17.1818 14.9999 15.5455 16.0908 14.7955 17.7272H25.9091C25.9091 16.2272 27.0682 15.0681 28.5682 14.9999C27.6818 14.1817 26.5228 13.6363 25.2273 13.6363Z" fill="#0E9347"/>
<path d="M15 16.3635C18.0125 16.3635 20.4546 13.6161 20.4546 10.2271C20.4546 6.8381 18.0125 4.09076 15 4.09076C11.9876 4.09076 9.54547 6.8381 9.54547 10.2271C9.54547 13.6161 11.9876 16.3635 15 16.3635Z" fill="#0E9347"/>
<path d="M6.81821 11.5906C7.57134 11.5906 8.18186 10.9801 8.18186 10.227C8.18186 9.47387 7.57134 8.86334 6.81821 8.86334C6.06509 8.86334 5.45456 9.47387 5.45456 10.227C5.45456 10.9801 6.06509 11.5906 6.81821 11.5906Z" fill="#0E9347"/>
<path d="M23.1818 11.5906C23.935 11.5906 24.5455 10.9801 24.5455 10.227C24.5455 9.47387 23.935 8.86334 23.1818 8.86334C22.4287 8.86334 21.8182 9.47387 21.8182 10.227C21.8182 10.9801 22.4287 11.5906 23.1818 11.5906Z" fill="#0E9347"/>
<path d="M17.7273 24.5455C20.3632 24.5455 22.5 22.4087 22.5 19.7728C22.5 17.1368 20.3632 15 17.7273 15C15.0913 15 12.9545 17.1368 12.9545 19.7728C12.9545 22.4087 15.0913 24.5455 17.7273 24.5455Z" fill="#FFCA5D"/>
<path d="M23.8637 23.1818C26.4996 23.1818 28.6364 21.045 28.6364 18.4091C28.6364 15.7731 26.4996 13.6363 23.8637 13.6363C21.2277 13.6363 19.0909 15.7731 19.0909 18.4091C19.0909 21.045 21.2277 23.1818 23.8637 23.1818Z" fill="#F6B545"/>
<path d="M23.8637 13.6363C21.2046 13.6363 19.0909 15.7499 19.0909 18.4091C19.0909 21.0682 21.2046 23.1818 23.8637 23.1818C26.5228 23.1818 28.6364 21.0682 28.6364 18.4091C28.6364 15.7499 26.5228 13.6363 23.8637 13.6363ZM23.8637 21.8182C21.9546 21.8182 20.4546 20.3182 20.4546 18.4091C20.4546 16.4999 21.9546 14.9999 23.8637 14.9999C25.7728 14.9999 27.2728 16.4999 27.2728 18.4091C27.2728 20.3182 25.7728 21.8182 23.8637 21.8182Z" fill="#FFCB5B"/>
<path d="M23.8636 23.1135C26.5227 23.1817 28.6364 20.9998 28.6364 18.409H28.5682C28.2273 18.409 27.9545 18.6817 27.8864 19.0226C27.7501 19.9772 27.2727 20.8635 26.591 21.4771C26.0455 22.0226 25.2955 22.3635 24.4773 22.4998C24.1363 22.4998 23.8636 22.7726 23.8636 23.1135Z" fill="#F6B545"/>
<path d="M23.8637 13.7045C21.2046 13.6363 19.0909 15.8181 19.0909 18.409H19.1591C19.5 18.409 19.7728 18.1363 19.8409 17.7954C19.9773 16.8408 20.4546 15.9545 21.1364 15.3408C21.6818 14.7954 22.4318 14.4545 23.25 14.3181C23.5909 14.3181 23.8637 14.0454 23.8637 13.7045Z" fill="#FFE27A"/>
<path d="M20.9318 18.8863C20.9318 16.9772 22.4318 15.4772 24.3409 15.4772C25.1591 15.4772 25.9091 15.75 26.5227 16.2954C25.8409 15.4772 24.9545 15 23.8636 15C21.9545 15 20.4545 16.5 20.4545 18.4091C20.4545 19.5 20.9318 20.3863 21.6818 21C21.2045 20.4545 20.9318 19.7045 20.9318 18.8863Z" fill="#F19920"/>
<path d="M25.9091 20.5228C25.8409 20.5228 25.7728 20.5228 25.7046 20.4546C25.5682 20.3182 25.5682 20.1137 25.7046 19.9773C26.1137 19.5682 26.3182 18.9546 26.3182 18.4091C26.3182 18.2046 26.4546 18.0682 26.6591 18.0682C26.8637 18.0682 27 18.2046 27 18.4091C27 19.1591 26.7273 19.9091 26.25 20.4546C26.1137 20.5228 25.9773 20.5228 25.9091 20.5228Z" fill="#FFCB5B"/>
<path d="M23.8637 20.4546C23.4546 20.4546 23.1819 20.1819 23.1819 19.7728V17.0456C23.1819 16.6365 23.4546 16.3638 23.8637 16.3638C24.2727 16.3638 24.5455 16.6365 24.5455 17.0456V19.7728C24.5455 20.1819 24.2728 20.4546 23.8637 20.4546Z" fill="#F19920"/>
<path d="M26.3864 22.4318C25.9091 20.7272 24.6818 19.3636 23.1136 18.75C22.8409 17.1818 21.8182 15.8182 20.5227 15C19.7045 15.8863 19.1591 17.0454 19.1591 18.3409C19.1591 21 21.2727 23.1136 23.9318 23.1136C24.8182 23.1818 25.6364 22.9091 26.3864 22.4318Z" fill="#F19920"/>
<path d="M21.6818 21.0001C21.2045 20.3864 20.8636 19.6364 20.8636 18.8183C20.8636 17.8637 21.2727 16.9774 21.9545 16.3637C21.8181 16.1592 21.6817 16.0228 21.5454 15.8865C20.8636 16.5001 20.4545 17.3865 20.4545 18.4092C20.4545 19.5001 20.9318 20.3864 21.6818 21.0001Z" fill="#E78825"/>
<path d="M23.1818 18.8181V19.7727C23.1818 20.1818 23.4545 20.4545 23.8636 20.4545C24.2726 20.4545 24.5454 20.1817 24.5454 19.7727V19.6363C24.1363 19.2954 23.6591 19.0227 23.1818 18.8181Z" fill="#E78825"/>
<path d="M26.3864 22.4317C26.25 21.9544 26.1136 21.5453 25.8409 21.1362C25.2955 21.5453 24.6137 21.818 23.8637 21.818C21.9546 21.818 20.4546 20.318 20.4546 18.4089C20.4546 17.3862 20.8637 16.4998 21.5455 15.8862C21.2046 15.5453 20.8637 15.2725 20.4546 15.0679C19.6364 15.9543 19.0909 17.1134 19.0909 18.4088C19.0909 21.0679 21.2046 23.1816 23.8637 23.1816C24.8182 23.1817 25.6364 22.909 26.3864 22.4317Z" fill="#F6B545"/>
<path d="M26.1818 21.8182C25.7045 22.1591 25.0909 22.3637 24.4772 22.5C24.1363 22.5682 23.8636 22.8409 23.8636 23.1818C24.8181 23.1818 25.6363 22.9091 26.3863 22.4318C26.3182 22.2273 26.25 22.0228 26.1818 21.8182Z" fill="#F19920"/>
<path d="M20.4546 15.0681C19.6364 15.9545 19.0909 17.1136 19.0909 18.409H19.1591C19.5 18.409 19.7728 18.1363 19.8409 17.7954C19.9773 16.8408 20.4546 16.0226 21.0682 15.409C20.8637 15.3408 20.6591 15.2045 20.4546 15.0681Z" fill="#FFCB5B"/>
<path d="M17.7273 24.5455C20.3632 24.5455 22.5 22.4087 22.5 19.7728C22.5 17.1368 20.3632 15 17.7273 15C15.0913 15 12.9545 17.1368 12.9545 19.7728C12.9545 22.4087 15.0913 24.5455 17.7273 24.5455Z" fill="#F6B545"/>
<path d="M17.0454 23.1819C17.0454 23.6592 17.1136 24.0683 17.25 24.5456C17.3863 24.5456 17.5909 24.5456 17.7272 24.5456C20.3863 24.5456 22.5 22.4319 22.5 19.7728C22.5 19.2956 22.4318 18.8865 22.2954 18.4092C22.1591 18.4092 21.9545 18.4092 21.8182 18.4092C19.1591 18.4092 17.0454 20.5229 17.0454 23.1819Z" fill="#F19920"/>
<path d="M17.7273 15C15.0682 15 12.9545 17.1137 12.9545 19.7728C12.9545 22.4319 15.0682 24.5455 17.7273 24.5455C20.3864 24.5455 22.5 22.4318 22.5 19.7728C22.5 17.1137 20.3864 15 17.7273 15ZM17.7273 23.1818C15.8182 23.1818 14.3182 21.6818 14.3182 19.7727C14.3182 17.8636 15.8182 16.3636 17.7273 16.3636C19.6364 16.3636 21.1364 17.8636 21.1364 19.7727C21.1364 21.6818 19.6364 23.1818 17.7273 23.1818Z" fill="#FFCB5B"/>
<path d="M17.7272 24.4771C20.3863 24.5453 22.5 22.3635 22.5 19.7727H22.4318C22.0909 19.7727 21.8181 20.0454 21.75 20.3863C21.6136 21.3409 21.1363 22.2272 20.4545 22.8408C19.9091 23.3863 19.1591 23.7272 18.3409 23.8636C18 23.8635 17.7272 24.1362 17.7272 24.4771Z" fill="#F6B545"/>
<path d="M17.7273 15.0682C15.0682 15 12.9545 17.1818 12.9545 19.7727H13.0227C13.3636 19.7727 13.6364 19.4999 13.7045 19.1591C13.8408 18.2045 14.3182 17.3182 14.9999 16.7045C15.5454 16.1591 16.2954 15.8182 17.1136 15.6818C17.4546 15.6818 17.7273 15.4091 17.7273 15.0682Z" fill="#FFE27A"/>
<path d="M14.7955 20.2501C14.7955 18.341 16.2955 16.841 18.2046 16.841C19.0228 16.841 19.7728 17.1137 20.3863 17.6592C19.7046 16.841 18.8181 16.3637 17.7272 16.3637C15.8181 16.3637 14.3181 17.8637 14.3181 19.7728C14.3181 20.8637 14.7954 21.7501 15.5454 22.3637C15.0682 21.8183 14.7955 21.0683 14.7955 20.2501Z" fill="#F19920"/>
<path d="M19.7728 21.8863C19.7046 21.8863 19.6364 21.8863 19.5682 21.8181C19.4319 21.6818 19.4319 21.4772 19.5682 21.3409C19.9773 20.9318 20.1819 20.3181 20.1819 19.7727C20.1819 19.5681 20.3182 19.4318 20.5228 19.4318C20.7273 19.4318 20.8637 19.5681 20.8637 19.7727C20.8637 20.5227 20.5909 21.2727 20.1137 21.8181C19.9773 21.8863 19.8409 21.8863 19.7728 21.8863Z" fill="#FFCB5B"/>
<path d="M17.7272 21.8184C17.3181 21.8184 17.0454 21.5456 17.0454 21.1366V18.4093C17.0454 18.0002 17.3182 17.7275 17.7272 17.7275C18.1363 17.7275 18.409 18.0003 18.409 18.4093V21.1366C18.4091 21.5456 18.1363 21.8184 17.7272 21.8184Z" fill="#F19920"/>
<path d="M20.8636 18.4774C21 18.8865 21.1364 19.2956 21.1364 19.7728C21.1364 21.6819 19.6364 23.1819 17.7273 23.1819C17.5227 23.1819 17.2501 23.1819 17.0455 23.1137V23.1819C17.0455 23.6592 17.1137 24.0683 17.2501 24.5456C17.3864 24.5456 17.591 24.5456 17.7273 24.5456C20.3864 24.5456 22.5001 22.4319 22.5001 19.7728C22.5001 19.2956 22.4319 18.8865 22.2955 18.4092C22.1592 18.4092 21.9546 18.4092 21.8183 18.4092C21.4772 18.4092 21.2045 18.4092 20.8636 18.4774Z" fill="#F6B545"/>
<path d="M21.1363 28.6366C23.7723 28.6366 25.9091 26.4997 25.9091 23.8638C25.9091 21.2279 23.7723 19.0911 21.1363 19.0911C18.5004 19.0911 16.3636 21.2279 16.3636 23.8638C16.3636 26.4997 18.5004 28.6366 21.1363 28.6366Z" fill="#F6B545"/>
<path d="M21.1363 19.091C18.4772 19.091 16.3636 21.2047 16.3636 23.8638C16.3636 26.5229 18.4772 28.6366 21.1363 28.6366C23.7954 28.6366 25.9091 26.5229 25.9091 23.8638C25.9091 21.2047 23.7954 19.091 21.1363 19.091ZM21.1363 27.2729C19.2272 27.2729 17.7272 25.7729 17.7272 23.8638C17.7272 21.9547 19.2272 20.4547 21.1363 20.4547C23.0454 20.4547 24.5454 21.9547 24.5454 23.8638C24.5454 25.7729 23.0454 27.2729 21.1363 27.2729Z" fill="#FFCB5B"/>
<path d="M21.1364 28.5683C23.7955 28.6365 25.9091 26.4546 25.9091 23.8637H25.8409C25.5 23.8637 25.2273 24.1365 25.1591 24.4774C25.0228 25.4319 24.5455 26.3183 23.8637 26.9319C23.3182 27.4774 22.5682 27.8183 21.75 27.9547C21.4091 27.9546 21.1364 28.2273 21.1364 28.5683Z" fill="#F6B545"/>
<path d="M21.1363 19.1592C18.4772 19.091 16.3636 21.2729 16.3636 23.8638H16.4318C16.7727 23.8638 17.0454 23.591 17.1136 23.2501C17.2499 22.2956 17.7272 21.4092 18.409 20.7956C18.9545 20.2501 19.7045 19.9092 20.5227 19.7728C20.8636 19.7729 21.1363 19.5001 21.1363 19.1592Z" fill="#FFE27A"/>
<path d="M18.2045 24.3408C18.2045 22.4317 19.7045 20.9317 21.6136 20.9317C22.4318 20.9317 23.1818 21.2045 23.7954 21.7499C23.1136 20.9317 22.2272 20.4545 21.1363 20.4545C19.2272 20.4545 17.7272 21.9545 17.7272 23.8636C17.7272 24.9545 18.2045 25.8408 18.9545 26.4545C18.4772 25.909 18.2045 25.159 18.2045 24.3408Z" fill="#F19920"/>
<path d="M23.1818 25.9771C23.1136 25.9771 23.0455 25.9771 22.9773 25.9089C22.8409 25.7726 22.8409 25.568 22.9773 25.4317C23.3864 25.0226 23.5909 24.4089 23.5909 23.8635C23.5909 23.6589 23.7273 23.5226 23.9318 23.5226C24.1364 23.5226 24.2727 23.6589 24.2727 23.8635C24.2727 24.6135 24 25.3635 23.5227 25.9089C23.3864 25.9771 23.25 25.9771 23.1818 25.9771Z" fill="#FFCB5B"/>
<path d="M21.1363 25.9091C20.7272 25.9091 20.4545 25.6364 20.4545 25.2273V22.5C20.4545 22.0909 20.7273 21.8182 21.1363 21.8182C21.5454 21.8182 21.8181 22.091 21.8181 22.5V25.2273C21.8182 25.6364 21.5454 25.9091 21.1363 25.9091Z" fill="#F19920"/>
</g>
<defs>
<clipPath id="clip0">
<rect width="30" height="30" fill="white"/>
</clipPath>
</defs>
</svg>
