<svg width="31" height="50" viewBox="0 0 31 50" fill="none" xmlns="http://www.w3.org/2000/svg">
<path d="M1.06216 33.124H2.29416V36.391H5.94616V33.124H7.16716V41H5.94616V37.557H2.29416V41H1.06216V33.124ZM11.3994 41.176C10.8347 41.176 10.3287 41.0477 9.88141 40.791C9.43407 40.527 9.08574 40.1677 8.83641 39.713C8.58707 39.2583 8.46241 38.7523 8.46241 38.195C8.46241 37.6377 8.58707 37.1317 8.83641 36.677C9.08574 36.2223 9.43407 35.8667 9.88141 35.61C10.3287 35.346 10.8347 35.214 11.3994 35.214C11.9641 35.214 12.4701 35.346 12.9174 35.61C13.3647 35.874 13.7131 36.2333 13.9624 36.688C14.2117 37.1427 14.3364 37.645 14.3364 38.195C14.3364 38.7523 14.2117 39.2583 13.9624 39.713C13.7131 40.1677 13.3647 40.527 12.9174 40.791C12.4701 41.0477 11.9641 41.176 11.3994 41.176ZM11.3994 40.065C11.7074 40.065 11.9934 39.9917 12.2574 39.845C12.5214 39.691 12.7304 39.4747 12.8844 39.196C13.0457 38.91 13.1264 38.5763 13.1264 38.195C13.1264 37.8137 13.0457 37.4837 12.8844 37.205C12.7304 36.9263 12.5214 36.7137 12.2574 36.567C11.9934 36.413 11.7074 36.336 11.3994 36.336C11.0914 36.336 10.8054 36.413 10.5414 36.567C10.2774 36.7137 10.0647 36.9263 9.90341 37.205C9.74941 37.4837 9.67241 37.8137 9.67241 38.195C9.67241 38.5763 9.74941 38.91 9.90341 39.196C10.0647 39.4747 10.2774 39.691 10.5414 39.845C10.8054 39.9917 11.0914 40.065 11.3994 40.065ZM15.3446 35.39H16.4996V36.127H16.5546C16.7233 35.8557 16.9616 35.6357 17.2696 35.467C17.5776 35.2983 17.9076 35.214 18.2596 35.214C18.663 35.214 19.015 35.3093 19.3156 35.5C19.6163 35.6833 19.8326 35.929 19.9646 36.237C20.1553 35.929 20.4083 35.6833 20.7236 35.5C21.0463 35.3093 21.424 35.214 21.8566 35.214C22.502 35.214 22.9896 35.412 23.3196 35.808C23.657 36.1967 23.8256 36.7283 23.8256 37.403V41H22.6156V37.612C22.6156 36.7613 22.2526 36.336 21.5266 36.336C21.138 36.336 20.819 36.4937 20.5696 36.809C20.3203 37.1243 20.1956 37.513 20.1956 37.975V41H18.9856V37.612C18.9856 36.7613 18.6116 36.336 17.8636 36.336C17.4823 36.336 17.167 36.4937 16.9176 36.809C16.6756 37.1243 16.5546 37.513 16.5546 37.975V41H15.3446V35.39ZM27.769 41.176C27.219 41.176 26.724 41.0477 26.284 40.791C25.8513 40.5343 25.5103 40.1823 25.261 39.735C25.019 39.2803 24.898 38.7707 24.898 38.206C24.898 37.6707 25.0153 37.1757 25.25 36.721C25.492 36.259 25.8256 35.8923 26.251 35.621C26.6763 35.3497 27.1603 35.214 27.703 35.214C28.2676 35.214 28.7553 35.3387 29.166 35.588C29.584 35.8373 29.8993 36.1783 30.112 36.611C30.332 37.0437 30.442 37.5313 30.442 38.074C30.442 38.1767 30.431 38.305 30.409 38.459H26.108C26.152 38.9797 26.3353 39.383 26.658 39.669C26.988 39.9477 27.3693 40.087 27.802 40.087C28.1466 40.087 28.4436 40.01 28.693 39.856C28.9496 39.6947 29.155 39.4783 29.309 39.207L30.332 39.691C30.068 40.153 29.7233 40.516 29.298 40.78C28.8726 41.044 28.363 41.176 27.769 41.176ZM29.21 37.535C29.1953 37.337 29.133 37.1427 29.023 36.952C28.913 36.754 28.7443 36.589 28.517 36.457C28.297 36.325 28.0256 36.259 27.703 36.259C27.3143 36.259 26.9843 36.3763 26.713 36.611C26.449 36.8383 26.2656 37.1463 26.163 37.535H29.21Z" fill="#4C4079"/>
<path d="M21.6667 6.66664L16.6667 2.28331C16.2083 1.87335 15.6149 1.6467 15 1.6467C14.385 1.6467 13.7917 1.87335 13.3333 2.28331L8.33332 6.66664C8.06863 6.90337 7.8574 7.19377 7.71371 7.51851C7.57002 7.84325 7.49716 8.19487 7.49999 8.54997V15.8333C7.49999 16.4963 7.76338 17.1322 8.23222 17.6011C8.70106 18.0699 9.33695 18.3333 9.99999 18.3333H20C20.663 18.3333 21.2989 18.0699 21.7678 17.6011C22.2366 17.1322 22.5 16.4963 22.5 15.8333V8.54164C22.5016 8.18794 22.4282 7.83792 22.2845 7.51471C22.1409 7.19149 21.9303 6.90244 21.6667 6.66664ZM16.6667 16.6666H13.3333V12.5C13.3333 12.279 13.4211 12.067 13.5774 11.9107C13.7337 11.7544 13.9456 11.6666 14.1667 11.6666H15.8333C16.0543 11.6666 16.2663 11.7544 16.4226 11.9107C16.5789 12.067 16.6667 12.279 16.6667 12.5V16.6666ZM20.8333 15.8333C20.8333 16.0543 20.7455 16.2663 20.5892 16.4226C20.433 16.5788 20.221 16.6666 20 16.6666H18.3333V12.5C18.3333 11.8369 18.0699 11.201 17.6011 10.7322C17.1322 10.2634 16.4964 9.99997 15.8333 9.99997H14.1667C13.5036 9.99997 12.8677 10.2634 12.3989 10.7322C11.93 11.201 11.6667 11.8369 11.6667 12.5V16.6666H9.99999C9.77897 16.6666 9.56701 16.5788 9.41073 16.4226C9.25445 16.2663 9.16665 16.0543 9.16665 15.8333V8.54164C9.1668 8.42332 9.19215 8.30639 9.241 8.19862C9.28986 8.09086 9.3611 7.99473 9.44999 7.91664L14.45 3.54164C14.6021 3.40804 14.7976 3.33436 15 3.33436C15.2024 3.33436 15.3979 3.40804 15.55 3.54164L20.55 7.91664C20.6389 7.99473 20.7101 8.09086 20.759 8.19862C20.8078 8.30639 20.8332 8.42332 20.8333 8.54164V15.8333Z" fill="#4C4079"/>
</svg>

