<svg width="58" height="50" viewBox="0 0 58 50" fill="none" xmlns="http://www.w3.org/2000/svg">
<path d="M1.01089 33.124H2.24289V41H1.01089V33.124ZM3.84218 35.39H4.99718V36.127H5.05218C5.21352 35.863 5.45185 35.6467 5.76718 35.478C6.08985 35.302 6.43085 35.214 6.79018 35.214C7.47218 35.214 7.98918 35.4157 8.34118 35.819C8.70052 36.215 8.88018 36.7577 8.88018 37.447V41H7.67018V37.612C7.67018 37.172 7.56018 36.8493 7.34018 36.644C7.12752 36.4387 6.83052 36.336 6.44918 36.336C6.17785 36.336 5.93585 36.413 5.72318 36.567C5.51052 36.7137 5.34552 36.9117 5.22818 37.161C5.11085 37.4103 5.05218 37.678 5.05218 37.964V41H3.84218V35.39ZM9.40268 35.39H10.7557L12.3067 39.438H12.3507L13.9347 35.39H15.2547L12.9227 41H11.7127L9.40268 35.39ZM18.4364 41.176C17.8864 41.176 17.3914 41.0477 16.9514 40.791C16.5188 40.5343 16.1778 40.1823 15.9284 39.735C15.6864 39.2803 15.5654 38.7707 15.5654 38.206C15.5654 37.6707 15.6828 37.1757 15.9174 36.721C16.1594 36.259 16.4931 35.8923 16.9184 35.621C17.3438 35.3497 17.8278 35.214 18.3704 35.214C18.9351 35.214 19.4228 35.3387 19.8334 35.588C20.2514 35.8373 20.5668 36.1783 20.7794 36.611C20.9994 37.0437 21.1094 37.5313 21.1094 38.074C21.1094 38.1767 21.0984 38.305 21.0764 38.459H16.7754C16.8194 38.9797 17.0028 39.383 17.3254 39.669C17.6554 39.9477 18.0368 40.087 18.4694 40.087C18.8141 40.087 19.1111 40.01 19.3604 39.856C19.6171 39.6947 19.8224 39.4783 19.9764 39.207L20.9994 39.691C20.7354 40.153 20.3908 40.516 19.9654 40.78C19.5401 41.044 19.0304 41.176 18.4364 41.176ZM19.8774 37.535C19.8628 37.337 19.8004 37.1427 19.6904 36.952C19.5804 36.754 19.4118 36.589 19.1844 36.457C18.9644 36.325 18.6931 36.259 18.3704 36.259C17.9818 36.259 17.6518 36.3763 17.3804 36.611C17.1164 36.8383 16.9331 37.1463 16.8304 37.535H19.8774ZM24.311 41.176C23.6657 41.176 23.1377 41.0367 22.727 40.758C22.3164 40.472 22.0267 40.109 21.858 39.669L22.936 39.196C23.068 39.4893 23.2514 39.713 23.486 39.867C23.728 40.021 24.003 40.098 24.311 40.098C24.6117 40.098 24.8647 40.0467 25.07 39.944C25.2754 39.834 25.378 39.6727 25.378 39.46C25.378 39.2547 25.29 39.0933 25.114 38.976C24.938 38.8587 24.6667 38.756 24.3 38.668L23.629 38.503C23.1817 38.393 22.8114 38.1987 22.518 37.92C22.2247 37.6413 22.078 37.2893 22.078 36.864C22.078 36.534 22.1734 36.2443 22.364 35.995C22.562 35.7457 22.826 35.555 23.156 35.423C23.486 35.2837 23.8454 35.214 24.234 35.214C24.7547 35.214 25.213 35.3203 25.609 35.533C26.005 35.7383 26.291 36.039 26.467 36.435L25.411 36.897C25.1984 36.4643 24.8097 36.248 24.245 36.248C23.9737 36.248 23.7464 36.303 23.563 36.413C23.3797 36.523 23.288 36.666 23.288 36.842C23.288 37.0107 23.3577 37.15 23.497 37.26C23.6364 37.3627 23.8417 37.4507 24.113 37.524L24.938 37.733C25.488 37.8723 25.9024 38.085 26.181 38.371C26.467 38.6497 26.61 38.9943 26.61 39.405C26.61 39.757 26.5074 40.0687 26.302 40.34C26.104 40.604 25.829 40.8093 25.477 40.956C25.125 41.1027 24.7364 41.176 24.311 41.176ZM29.9029 41.088C29.6536 41.088 29.4189 41.0477 29.1989 40.967C28.9789 40.8863 28.7992 40.78 28.6599 40.648C28.3446 40.3327 28.1869 39.9037 28.1869 39.361V36.457H27.2079V35.39H28.1869V33.806H29.3969V35.39H30.7609V36.457H29.3969V39.097C29.3969 39.3977 29.4556 39.6103 29.5729 39.735C29.6829 39.8817 29.8736 39.955 30.1449 39.955C30.2696 39.955 30.3796 39.9403 30.4749 39.911C30.5702 39.8743 30.6729 39.8193 30.7829 39.746V40.923C30.5409 41.033 30.2476 41.088 29.9029 41.088ZM31.9652 35.39H33.1202V36.127H33.1752C33.3439 35.8557 33.5822 35.6357 33.8902 35.467C34.1982 35.2983 34.5282 35.214 34.8802 35.214C35.2836 35.214 35.6356 35.3093 35.9362 35.5C36.2369 35.6833 36.4532 35.929 36.5852 36.237C36.7759 35.929 37.0289 35.6833 37.3442 35.5C37.6669 35.3093 38.0446 35.214 38.4772 35.214C39.1226 35.214 39.6102 35.412 39.9402 35.808C40.2776 36.1967 40.4462 36.7283 40.4462 37.403V41H39.2362V37.612C39.2362 36.7613 38.8732 36.336 38.1472 36.336C37.7586 36.336 37.4396 36.4937 37.1902 36.809C36.9409 37.1243 36.8162 37.513 36.8162 37.975V41H35.6062V37.612C35.6062 36.7613 35.2322 36.336 34.4842 36.336C34.1029 36.336 33.7876 36.4937 33.5382 36.809C33.2962 37.1243 33.1752 37.513 33.1752 37.975V41H31.9652V35.39ZM44.3896 41.176C43.8396 41.176 43.3446 41.0477 42.9046 40.791C42.4719 40.5343 42.1309 40.1823 41.8816 39.735C41.6396 39.2803 41.5186 38.7707 41.5186 38.206C41.5186 37.6707 41.6359 37.1757 41.8706 36.721C42.1126 36.259 42.4462 35.8923 42.8716 35.621C43.2969 35.3497 43.7809 35.214 44.3236 35.214C44.8882 35.214 45.3759 35.3387 45.7866 35.588C46.2046 35.8373 46.5199 36.1783 46.7326 36.611C46.9526 37.0437 47.0626 37.5313 47.0626 38.074C47.0626 38.1767 47.0516 38.305 47.0296 38.459H42.7286C42.7726 38.9797 42.9559 39.383 43.2786 39.669C43.6086 39.9477 43.9899 40.087 44.4226 40.087C44.7672 40.087 45.0642 40.01 45.3136 39.856C45.5702 39.6947 45.7756 39.4783 45.9296 39.207L46.9526 39.691C46.6886 40.153 46.3439 40.516 45.9186 40.78C45.4932 41.044 44.9836 41.176 44.3896 41.176ZM45.8306 37.535C45.8159 37.337 45.7536 37.1427 45.6436 36.952C45.5336 36.754 45.3649 36.589 45.1376 36.457C44.9176 36.325 44.6462 36.259 44.3236 36.259C43.9349 36.259 43.6049 36.3763 43.3336 36.611C43.0696 36.8383 42.8862 37.1463 42.7836 37.535H45.8306ZM48.1644 35.39H49.3194V36.127H49.3744C49.5358 35.863 49.7741 35.6467 50.0894 35.478C50.4121 35.302 50.7531 35.214 51.1124 35.214C51.7944 35.214 52.3114 35.4157 52.6634 35.819C53.0228 36.215 53.2024 36.7577 53.2024 37.447V41H51.9924V37.612C51.9924 37.172 51.8824 36.8493 51.6624 36.644C51.4498 36.4387 51.1528 36.336 50.7714 36.336C50.5001 36.336 50.2581 36.413 50.0454 36.567C49.8328 36.7137 49.6678 36.9117 49.5504 37.161C49.4331 37.4103 49.3744 37.678 49.3744 37.964V41H48.1644V35.39ZM56.5865 41.088C56.3372 41.088 56.1025 41.0477 55.8825 40.967C55.6625 40.8863 55.4828 40.78 55.3435 40.648C55.0282 40.3327 54.8705 39.9037 54.8705 39.361V36.457H53.8915V35.39H54.8705V33.806H56.0805V35.39H57.4445V36.457H56.0805V39.097C56.0805 39.3977 56.1392 39.6103 56.2565 39.735C56.3665 39.8817 56.5572 39.955 56.8285 39.955C56.9532 39.955 57.0632 39.9403 57.1585 39.911C57.2538 39.8743 57.3565 39.8193 57.4665 39.746V40.923C57.2245 41.033 56.9312 41.088 56.5865 41.088Z" fill="#4C4079"/>
<path d="M36.5 16.6667H35.6667V4.16666C35.6667 3.94564 35.5789 3.73368 35.4226 3.5774C35.2663 3.42112 35.0544 3.33332 34.8334 3.33332C34.6123 3.33332 34.4004 3.42112 34.2441 3.5774C34.0878 3.73368 34 3.94564 34 4.16666V16.6667H32.3334V10.8333C32.3334 10.6123 32.2456 10.4003 32.0893 10.2441C31.933 10.0878 31.721 9.99999 31.5 9.99999C31.279 9.99999 31.067 10.0878 30.9108 10.2441C30.7545 10.4003 30.6667 10.6123 30.6667 10.8333V16.6667H29V7.49999C29 7.27898 28.9122 7.06702 28.7559 6.91074C28.5997 6.75446 28.3877 6.66666 28.1667 6.66666C27.9457 6.66666 27.7337 6.75446 27.5774 6.91074C27.4212 7.06702 27.3334 7.27898 27.3334 7.49999V16.6667H25.6667V14.1667C25.6667 13.9456 25.5789 13.7337 25.4226 13.5774C25.2663 13.4211 25.0544 13.3333 24.8334 13.3333C24.6123 13.3333 24.4004 13.4211 24.2441 13.5774C24.0878 13.7337 24 13.9456 24 14.1667V16.6667H22.3334V2.49999C22.3334 2.27898 22.2456 2.06701 22.0893 1.91073C21.933 1.75445 21.721 1.66666 21.5 1.66666C21.279 1.66666 21.067 1.75445 20.9108 1.91073C20.7545 2.06701 20.6667 2.27898 20.6667 2.49999V17.5C20.6667 17.721 20.7545 17.933 20.9108 18.0892C21.067 18.2455 21.279 18.3333 21.5 18.3333H36.5C36.721 18.3333 36.933 18.2455 37.0893 18.0892C37.2456 17.933 37.3334 17.721 37.3334 17.5C37.3334 17.279 37.2456 17.067 37.0893 16.9107C36.933 16.7545 36.721 16.6667 36.5 16.6667Z" fill="#4C4079"/>
</svg>
