<svg width="27" height="50" viewBox="0 0 27 50" fill="none" xmlns="http://www.w3.org/2000/svg">
<path d="M14 8.33334C13.6704 8.33334 13.3481 8.43109 13.0741 8.61423C12.8 8.79736 12.5863 9.05766 12.4602 9.36221C12.3341 9.66675 12.3011 10.0019 12.3654 10.3252C12.4297 10.6485 12.5884 10.9454 12.8215 11.1785C13.0546 11.4116 13.3515 11.5703 13.6749 11.6347C13.9982 11.699 14.3333 11.666 14.6378 11.5398C14.9424 11.4137 15.2026 11.2 15.3858 10.926C15.5689 10.6519 15.6667 10.3296 15.6667 10C15.6667 9.55798 15.4911 9.13406 15.1785 8.8215C14.866 8.50894 14.442 8.33334 14 8.33334ZM8.16667 8.33334C7.83703 8.33334 7.5148 8.43109 7.24072 8.61423C6.96664 8.79736 6.75301 9.05766 6.62687 9.36221C6.50072 9.66675 6.46772 10.0019 6.53203 10.3252C6.59633 10.6485 6.75507 10.9454 6.98816 11.1785C7.22124 11.4116 7.51822 11.5703 7.84152 11.6347C8.16482 11.699 8.49993 11.666 8.80447 11.5398C9.10902 11.4137 9.36931 11.2 9.55245 10.926C9.73559 10.6519 9.83333 10.3296 9.83333 10C9.83333 9.55798 9.65774 9.13406 9.34518 8.8215C9.03262 8.50894 8.6087 8.33334 8.16667 8.33334ZM19.8333 8.33334C19.5037 8.33334 19.1815 8.43109 18.9074 8.61423C18.6333 8.79736 18.4197 9.05766 18.2935 9.36221C18.1674 9.66675 18.1344 10.0019 18.1987 10.3252C18.263 10.6485 18.4217 10.9454 18.6548 11.1785C18.8879 11.4116 19.1849 11.5703 19.5082 11.6347C19.8315 11.699 20.1666 11.666 20.4711 11.5398C20.7757 11.4137 21.036 11.2 21.2191 10.926C21.4023 10.6519 21.5 10.3296 21.5 10C21.5 9.55798 21.3244 9.13406 21.0118 8.8215C20.6993 8.50894 20.2754 8.33334 19.8333 8.33334Z" fill="#4C4079"/>
<path d="M1.01723 33.124H2.68923L4.95523 39.097H5.02123L7.28723 33.124H8.95923V41H7.73823V36.589L7.80424 35.17H7.73823L5.48323 41H4.49323L2.23823 35.17H2.17223L2.23823 36.589V41H1.01723V33.124ZM13.1914 41.176C12.6267 41.176 12.1207 41.0477 11.6734 40.791C11.2261 40.527 10.8777 40.1677 10.6284 39.713C10.3791 39.2583 10.2544 38.7523 10.2544 38.195C10.2544 37.6377 10.3791 37.1317 10.6284 36.677C10.8777 36.2223 11.2261 35.8667 11.6734 35.61C12.1207 35.346 12.6267 35.214 13.1914 35.214C13.7561 35.214 14.2621 35.346 14.7094 35.61C15.1567 35.874 15.5051 36.2333 15.7544 36.688C16.0037 37.1427 16.1284 37.645 16.1284 38.195C16.1284 38.7523 16.0037 39.2583 15.7544 39.713C15.5051 40.1677 15.1567 40.527 14.7094 40.791C14.2621 41.0477 13.7561 41.176 13.1914 41.176ZM13.1914 40.065C13.4994 40.065 13.7854 39.9917 14.0494 39.845C14.3134 39.691 14.5224 39.4747 14.6764 39.196C14.8377 38.91 14.9184 38.5763 14.9184 38.195C14.9184 37.8137 14.8377 37.4837 14.6764 37.205C14.5224 36.9263 14.3134 36.7137 14.0494 36.567C13.7854 36.413 13.4994 36.336 13.1914 36.336C12.8834 36.336 12.5974 36.413 12.3334 36.567C12.0694 36.7137 11.8567 36.9263 11.6954 37.205C11.5414 37.4837 11.4644 37.8137 11.4644 38.195C11.4644 38.5763 11.5414 38.91 11.6954 39.196C11.8567 39.4747 12.0694 39.691 12.3334 39.845C12.5974 39.9917 12.8834 40.065 13.1914 40.065ZM17.1366 35.39H18.2916V36.215H18.3466C18.4713 35.929 18.6876 35.6943 18.9956 35.511C19.3036 35.3203 19.63 35.225 19.9746 35.225C20.246 35.225 20.4733 35.2617 20.6566 35.335V36.589C20.334 36.4717 20.0443 36.413 19.7876 36.413C19.509 36.413 19.2596 36.4863 19.0396 36.633C18.827 36.7797 18.6583 36.9777 18.5336 37.227C18.409 37.469 18.3466 37.7367 18.3466 38.03V41H17.1366V35.39ZM23.8139 41.176C23.2639 41.176 22.7689 41.0477 22.3289 40.791C21.8962 40.5343 21.5552 40.1823 21.3059 39.735C21.0639 39.2803 20.9429 38.7707 20.9429 38.206C20.9429 37.6707 21.0602 37.1757 21.2949 36.721C21.5369 36.259 21.8705 35.8923 22.2959 35.621C22.7212 35.3497 23.2052 35.214 23.7479 35.214C24.3125 35.214 24.8002 35.3387 25.2109 35.588C25.6289 35.8373 25.9442 36.1783 26.1569 36.611C26.3769 37.0437 26.4869 37.5313 26.4869 38.074C26.4869 38.1767 26.4759 38.305 26.4539 38.459H22.1529C22.1969 38.9797 22.3802 39.383 22.7029 39.669C23.0329 39.9477 23.4142 40.087 23.8469 40.087C24.1915 40.087 24.4885 40.01 24.7379 39.856C24.9945 39.6947 25.1999 39.4783 25.3539 39.207L26.3769 39.691C26.1129 40.153 25.7682 40.516 25.3429 40.78C24.9175 41.044 24.4079 41.176 23.8139 41.176ZM25.2549 37.535C25.2402 37.337 25.1779 37.1427 25.0679 36.952C24.9579 36.754 24.7892 36.589 24.5619 36.457C24.3419 36.325 24.0705 36.259 23.7479 36.259C23.3592 36.259 23.0292 36.3763 22.7579 36.611C22.4939 36.8383 22.3105 37.1463 22.2079 37.535H25.2549Z" fill="#4C4079"/>
</svg>
