<svg width="56" height="81" viewBox="0 0 56 81" fill="none" xmlns="http://www.w3.org/2000/svg">
<path d="M4.14712 64.124H5.61012L9.13012 69.855H9.19612L9.13012 68.337V64.124H10.3511V72H9.06412L5.36812 65.972H5.30212L5.36812 67.49V72H4.14712V64.124ZM14.515 72.176C13.965 72.176 13.47 72.0477 13.03 71.791C12.5974 71.5343 12.2564 71.1823 12.007 70.735C11.765 70.2803 11.644 69.7707 11.644 69.206C11.644 68.6707 11.7614 68.1757 11.996 67.721C12.238 67.259 12.5717 66.8923 12.997 66.621C13.4224 66.3497 13.9064 66.214 14.449 66.214C15.0137 66.214 15.5014 66.3387 15.912 66.588C16.33 66.8373 16.6454 67.1783 16.858 67.611C17.078 68.0437 17.188 68.5313 17.188 69.074C17.188 69.1767 17.177 69.305 17.155 69.459H12.854C12.898 69.9797 13.0814 70.383 13.404 70.669C13.734 70.9477 14.1154 71.087 14.548 71.087C14.8927 71.087 15.1897 71.01 15.439 70.856C15.6957 70.6947 15.901 70.4783 16.055 70.207L17.078 70.691C16.814 71.153 16.4694 71.516 16.044 71.78C15.6187 72.044 15.109 72.176 14.515 72.176ZM15.956 68.535C15.9414 68.337 15.879 68.1427 15.769 67.952C15.659 67.754 15.4904 67.589 15.263 67.457C15.043 67.325 14.7717 67.259 14.449 67.259C14.0604 67.259 13.7304 67.3763 13.459 67.611C13.195 67.8383 13.0117 68.1463 12.909 68.535H15.956ZM17.5555 66.39H18.8645L19.9975 70.405H20.0415L21.3065 66.39H22.5495L23.8035 70.405H23.8475L24.9805 66.39H26.2675L24.4745 72H23.1985L21.9115 67.974H21.8785L20.6025 72H19.3485L17.5555 66.39ZM29.8209 64.124H31.0529V70.823H34.4299V72H29.8209V64.124ZM37.9883 72.176C37.4236 72.176 36.9176 72.0477 36.4703 71.791C36.0229 71.527 35.6746 71.1677 35.4253 70.713C35.1759 70.2583 35.0513 69.7523 35.0513 69.195C35.0513 68.6377 35.1759 68.1317 35.4253 67.677C35.6746 67.2223 36.0229 66.8667 36.4703 66.61C36.9176 66.346 37.4236 66.214 37.9883 66.214C38.5529 66.214 39.0589 66.346 39.5063 66.61C39.9536 66.874 40.3019 67.2333 40.5513 67.688C40.8006 68.1427 40.9253 68.645 40.9253 69.195C40.9253 69.7523 40.8006 70.2583 40.5513 70.713C40.3019 71.1677 39.9536 71.527 39.5063 71.791C39.0589 72.0477 38.5529 72.176 37.9883 72.176ZM37.9883 71.065C38.2963 71.065 38.5823 70.9917 38.8463 70.845C39.1103 70.691 39.3193 70.4747 39.4733 70.196C39.6346 69.91 39.7153 69.5763 39.7153 69.195C39.7153 68.8137 39.6346 68.4837 39.4733 68.205C39.3193 67.9263 39.1103 67.7137 38.8463 67.567C38.5823 67.413 38.2963 67.336 37.9883 67.336C37.6803 67.336 37.3943 67.413 37.1303 67.567C36.8663 67.7137 36.6536 67.9263 36.4923 68.205C36.3383 68.4837 36.2613 68.8137 36.2613 69.195C36.2613 69.5763 36.3383 69.91 36.4923 70.196C36.6536 70.4747 36.8663 70.691 37.1303 70.845C37.3943 70.9917 37.6803 71.065 37.9883 71.065ZM43.8009 72.176C43.3976 72.176 43.0382 72.099 42.7229 71.945C42.4076 71.7837 42.1619 71.56 41.9859 71.274C41.8099 70.9807 41.7219 70.6507 41.7219 70.284C41.7219 69.7047 41.9382 69.2463 42.3709 68.909C42.8109 68.5717 43.3646 68.403 44.0319 68.403C44.3619 68.403 44.6589 68.436 44.9229 68.502C45.1869 68.5607 45.3959 68.6267 45.5499 68.7V68.414C45.5499 68.0693 45.4216 67.7907 45.1649 67.578C44.9082 67.358 44.5782 67.248 44.1749 67.248C43.8889 67.248 43.6176 67.3103 43.3609 67.435C43.1116 67.5597 42.9099 67.732 42.7559 67.952L41.9089 67.303C42.1582 66.9583 42.4809 66.6907 42.8769 66.5C43.2729 66.3093 43.7129 66.214 44.1969 66.214C45.0109 66.214 45.6379 66.4157 46.0779 66.819C46.5179 67.215 46.7379 67.776 46.7379 68.502V72H45.5499V71.329H45.4949C45.3336 71.571 45.1062 71.7727 44.8129 71.934C44.5196 72.0953 44.1822 72.176 43.8009 72.176ZM44.0099 71.175C44.3032 71.175 44.5672 71.1053 44.8019 70.966C45.0366 70.8267 45.2199 70.6397 45.3519 70.405C45.4839 70.1703 45.5499 69.9173 45.5499 69.646C45.3812 69.5507 45.1832 69.4737 44.9559 69.415C44.7359 69.3563 44.5049 69.327 44.2629 69.327C43.8082 69.327 43.4746 69.4187 43.2619 69.602C43.0492 69.778 42.9429 70.009 42.9429 70.295C42.9429 70.5517 43.0419 70.7643 43.2399 70.933C43.4379 71.0943 43.6946 71.175 44.0099 71.175ZM48.0565 66.39H49.2115V67.127H49.2665C49.4279 66.863 49.6662 66.6467 49.9815 66.478C50.3042 66.302 50.6452 66.214 51.0045 66.214C51.6865 66.214 52.2035 66.4157 52.5555 66.819C52.9149 67.215 53.0945 67.7577 53.0945 68.447V72H51.8845V68.612C51.8845 68.172 51.7745 67.8493 51.5545 67.644C51.3419 67.4387 51.0449 67.336 50.6635 67.336C50.3922 67.336 50.1502 67.413 49.9375 67.567C49.7249 67.7137 49.5599 67.9117 49.4425 68.161C49.3252 68.4103 49.2665 68.678 49.2665 68.964V72H48.0565V66.39Z" fill="#4C4079"/>
<circle cx="28" cy="28" r="28" fill="#6023CC"/>
<path d="M35 27H29V21C29 20.7348 28.8946 20.4804 28.7071 20.2929C28.5196 20.1054 28.2652 20 28 20C27.7348 20 27.4804 20.1054 27.2929 20.2929C27.1054 20.4804 27 20.7348 27 21V27H21C20.7348 27 20.4804 27.1054 20.2929 27.2929C20.1054 27.4804 20 27.7348 20 28C20 28.2652 20.1054 28.5196 20.2929 28.7071C20.4804 28.8946 20.7348 29 21 29H27V35C27 35.2652 27.1054 35.5196 27.2929 35.7071C27.4804 35.8946 27.7348 36 28 36C28.2652 36 28.5196 35.8946 28.7071 35.7071C28.8946 35.5196 29 35.2652 29 35V29H35C35.2652 29 35.5196 28.8946 35.7071 28.7071C35.8946 28.5196 36 28.2652 36 28C36 27.7348 35.8946 27.4804 35.7071 27.2929C35.5196 27.1054 35.2652 27 35 27Z" fill="white"/>
</svg>
