<svg width="32" height="50" viewBox="0 0 32 50" fill="none" xmlns="http://www.w3.org/2000/svg">
<path d="M0.245594 33.124H1.62059L2.84159 38.195L2.97359 38.877H3.03959L3.21559 38.195L4.78859 33.124H6.02059L7.51659 38.195L7.69259 38.866H7.75859L7.89059 38.195L9.11159 33.124H10.4866L8.40759 41H7.09859L5.60259 35.808L5.43759 35.104H5.37159L5.18459 35.808L3.62259 41H2.34659L0.245594 33.124ZM12.6954 41.176C12.2921 41.176 11.9328 41.099 11.6174 40.945C11.3021 40.7837 11.0564 40.56 10.8804 40.274C10.7044 39.9807 10.6164 39.6507 10.6164 39.284C10.6164 38.7047 10.8328 38.2463 11.2654 37.909C11.7054 37.5717 12.2591 37.403 12.9264 37.403C13.2564 37.403 13.5534 37.436 13.8174 37.502C14.0814 37.5607 14.2904 37.6267 14.4444 37.7V37.414C14.4444 37.0693 14.3161 36.7907 14.0594 36.578C13.8028 36.358 13.4728 36.248 13.0694 36.248C12.7834 36.248 12.5121 36.3103 12.2554 36.435C12.0061 36.5597 11.8044 36.732 11.6504 36.952L10.8034 36.303C11.0528 35.9583 11.3754 35.6907 11.7714 35.5C12.1674 35.3093 12.6074 35.214 13.0914 35.214C13.9054 35.214 14.5324 35.4157 14.9724 35.819C15.4124 36.215 15.6324 36.776 15.6324 37.502V41H14.4444V40.329H14.3894C14.2281 40.571 14.0008 40.7727 13.7074 40.934C13.4141 41.0953 13.0768 41.176 12.6954 41.176ZM12.9044 40.175C13.1978 40.175 13.4618 40.1053 13.6964 39.966C13.9311 39.8267 14.1144 39.6397 14.2464 39.405C14.3784 39.1703 14.4444 38.9173 14.4444 38.646C14.2758 38.5507 14.0778 38.4737 13.8504 38.415C13.6304 38.3563 13.3994 38.327 13.1574 38.327C12.7028 38.327 12.3691 38.4187 12.1564 38.602C11.9438 38.778 11.8374 39.009 11.8374 39.295C11.8374 39.5517 11.9364 39.7643 12.1344 39.933C12.3324 40.0943 12.5891 40.175 12.9044 40.175ZM16.9511 33.124H18.1611V41H16.9511V33.124ZM19.5829 33.124H20.7929V41H19.5829V33.124ZM24.724 41.176C24.174 41.176 23.679 41.0477 23.239 40.791C22.8064 40.5343 22.4654 40.1823 22.216 39.735C21.974 39.2803 21.853 38.7707 21.853 38.206C21.853 37.6707 21.9704 37.1757 22.205 36.721C22.447 36.259 22.7807 35.8923 23.206 35.621C23.6314 35.3497 24.1154 35.214 24.658 35.214C25.2227 35.214 25.7104 35.3387 26.121 35.588C26.539 35.8373 26.8544 36.1783 27.067 36.611C27.287 37.0437 27.397 37.5313 27.397 38.074C27.397 38.1767 27.386 38.305 27.364 38.459H23.063C23.107 38.9797 23.2904 39.383 23.613 39.669C23.943 39.9477 24.3244 40.087 24.757 40.087C25.1017 40.087 25.3987 40.01 25.648 39.856C25.9047 39.6947 26.11 39.4783 26.264 39.207L27.287 39.691C27.023 40.153 26.6784 40.516 26.253 40.78C25.8277 41.044 25.318 41.176 24.724 41.176ZM26.165 37.535C26.1504 37.337 26.088 37.1427 25.978 36.952C25.868 36.754 25.6994 36.589 25.472 36.457C25.252 36.325 24.9807 36.259 24.658 36.259C24.2694 36.259 23.9394 36.3763 23.668 36.611C23.404 36.8383 23.2207 37.1463 23.118 37.535H26.165ZM30.6368 41.088C30.3875 41.088 30.1528 41.0477 29.9328 40.967C29.7128 40.8863 29.5331 40.78 29.3938 40.648C29.0785 40.3327 28.9208 39.9037 28.9208 39.361V36.457H27.9418V35.39H28.9208V33.806H30.1308V35.39H31.4948V36.457H30.1308V39.097C30.1308 39.3977 30.1895 39.6103 30.3068 39.735C30.4168 39.8817 30.6075 39.955 30.8788 39.955C31.0035 39.955 31.1135 39.9403 31.2088 39.911C31.3041 39.8743 31.4068 39.8193 31.5168 39.746V40.923C31.2748 41.033 30.9815 41.088 30.6368 41.088Z" fill="#4C4079"/>
<path d="M21.8333 5.83333H21V5C21 4.33696 20.7366 3.70107 20.2678 3.23223C19.7989 2.76339 19.163 2.5 18.5 2.5H10.1667C9.50362 2.5 8.86773 2.76339 8.39889 3.23223C7.93005 3.70107 7.66666 4.33696 7.66666 5V15C7.66666 15.663 7.93005 16.2989 8.39889 16.7678C8.86773 17.2366 9.50362 17.5 10.1667 17.5H21.8333C22.4964 17.5 23.1323 17.2366 23.6011 16.7678C24.0699 16.2989 24.3333 15.663 24.3333 15V8.33333C24.3333 7.67029 24.0699 7.03441 23.6011 6.56557C23.1323 6.09673 22.4964 5.83333 21.8333 5.83333ZM10.1667 4.16667H18.5C18.721 4.16667 18.933 4.25446 19.0892 4.41074C19.2455 4.56702 19.3333 4.77899 19.3333 5V5.83333H10.1667C9.94564 5.83333 9.73368 5.74554 9.5774 5.58926C9.42112 5.43298 9.33332 5.22101 9.33332 5C9.33332 4.77899 9.42112 4.56702 9.5774 4.41074C9.73368 4.25446 9.94564 4.16667 10.1667 4.16667ZM22.6667 12.5H21.8333C21.6123 12.5 21.4003 12.4122 21.2441 12.2559C21.0878 12.0996 21 11.8877 21 11.6667C21 11.4457 21.0878 11.2337 21.2441 11.0774C21.4003 10.9211 21.6123 10.8333 21.8333 10.8333H22.6667V12.5ZM22.6667 9.16667H21.8333C21.1703 9.16667 20.5344 9.43006 20.0656 9.8989C19.5967 10.3677 19.3333 11.0036 19.3333 11.6667C19.3333 12.3297 19.5967 12.9656 20.0656 13.4344C20.5344 13.9033 21.1703 14.1667 21.8333 14.1667H22.6667V15C22.6667 15.221 22.5789 15.433 22.4226 15.5893C22.2663 15.7455 22.0543 15.8333 21.8333 15.8333H10.1667C9.94564 15.8333 9.73368 15.7455 9.5774 15.5893C9.42112 15.433 9.33332 15.221 9.33332 15V7.35833C9.60105 7.45251 9.88285 7.50042 10.1667 7.5H21.8333C22.0543 7.5 22.2663 7.5878 22.4226 7.74408C22.5789 7.90036 22.6667 8.11232 22.6667 8.33333V9.16667Z" fill="#4C4079"/>
</svg>
