<svg width="16" height="17" viewBox="0 0 16 17" fill="none" xmlns="http://www.w3.org/2000/svg">
<path fill-rule="evenodd" clip-rule="evenodd" d="M8.70711 1.24078C9.09763 1.63082 9.09763 2.26321 8.70711 2.65325L3.41421 7.93964H15C15.5523 7.93964 16 8.3868 16 8.9384C16 9.49001 15.5523 9.93717 15 9.93717H3.41421L8.70711 15.2236C9.09763 15.6136 9.09763 16.246 8.70711 16.636C8.31658 17.0261 7.68342 17.0261 7.29289 16.636L0.292893 9.64464C0.0983934 9.45038 0.000763893 9.19601 3.8147e-06 8.9414C9.53674e-07 8.9404 0 8.9394 0 8.9384C0 8.93741 9.53674e-07 8.93641 3.8147e-06 8.93541C0.000398636 8.80108 0.0273457 8.67298 0.0758781 8.55609C0.124678 8.43829 0.197017 8.32793 0.292893 8.23217L7.29289 1.24078C7.68342 0.850731 8.31658 0.850731 8.70711 1.24078Z" fill="white"/>
</svg>
